<svg width="20" height="20" viewBox="0 0 20 20" fill="none" xmlns="http://www.w3.org/2000/svg">
<path d="M13.9995 11.724C13.8698 11.7241 13.743 11.6851 13.6351 11.612C13.5272 11.5389 13.4431 11.4351 13.3935 11.3135C13.3438 11.192 13.3308 11.0582 13.3561 10.9292C13.3814 10.8002 13.4438 10.6816 13.5355 10.5886C13.6272 10.4955 13.7441 10.4322 13.8713 10.4065C13.9985 10.3808 14.1304 10.3939 14.2503 10.4442C14.3701 10.4946 14.4726 10.5798 14.5447 10.6892C14.6168 10.7986 14.6553 10.9272 14.6553 11.0587C14.6551 11.2351 14.5859 11.4041 14.463 11.5289C14.3401 11.6536 14.1734 11.7238 13.9995 11.724ZM6.75049 11.724C6.62077 11.7241 6.49395 11.6851 6.38608 11.612C6.2782 11.5389 6.19412 11.4351 6.14445 11.3135C6.09479 11.192 6.08177 11.0582 6.10706 10.9292C6.13234 10.8002 6.19479 10.6816 6.2865 10.5886C6.37821 10.4955 6.49506 10.4322 6.62229 10.4065C6.74951 10.3808 6.88139 10.3939 7.00125 10.4442C7.12111 10.4946 7.22356 10.5798 7.29565 10.6892C7.36774 10.7986 7.40623 10.9272 7.40626 11.0587C7.40609 11.2351 7.33696 11.4042 7.21402 11.5289C7.09108 11.6536 6.92438 11.7238 6.75049 11.724ZM14.2347 7.71748L15.5454 5.41519C15.5633 5.38375 15.5749 5.34903 15.5796 5.31301C15.5843 5.277 15.582 5.24041 15.5727 5.20532C15.5635 5.17022 15.5475 5.13732 15.5257 5.10849C15.5039 5.07966 15.4768 5.05547 15.4458 5.03729C15.4147 5.01911 15.3805 5.0073 15.345 5.00254C15.3095 4.99777 15.2734 5.00015 15.2388 5.00953C15.2042 5.01891 15.1718 5.03511 15.1433 5.05721C15.1149 5.07931 15.0911 5.10686 15.0731 5.13831L13.7459 7.46968C12.731 6.99989 11.5911 6.7383 10.3749 6.7383C9.15863 6.7383 8.01889 7.00027 7.00397 7.46968L5.67687 5.13831C5.65897 5.10686 5.63513 5.07929 5.60672 5.05717C5.57832 5.03506 5.54589 5.01884 5.5113 5.00943C5.47671 5.00003 5.44063 4.99763 5.40513 5.00236C5.36962 5.0071 5.33539 5.01888 5.30437 5.03704C5.27335 5.05519 5.24617 5.07936 5.22436 5.10818C5.20256 5.13699 5.18657 5.16987 5.17729 5.20495C5.16802 5.24003 5.16565 5.27662 5.17032 5.31263C5.17499 5.34864 5.18661 5.38336 5.20451 5.41482L6.5153 7.71748C4.26461 8.95899 2.72518 11.2698 2.5 14H18.25C18.0246 11.2698 16.4853 8.95899 14.2347 7.71748Z" fill="white"/>
</svg>
