<svg width="20" height="20" viewBox="0 0 20 20" fill="none" xmlns="http://www.w3.org/2000/svg">
<path fill-rule="evenodd" clip-rule="evenodd" d="M12.9657 2.5C12.9657 2.5 11.5534 2.5062 10.5397 3.73258H10.5407C9.63808 4.82348 9.86783 5.75677 9.86783 5.75677C9.86783 5.75677 11.0919 5.95157 12.1674 4.76503C13.1752 3.65377 12.9657 2.5 12.9657 2.5ZM10.8047 6.34087C10.4729 6.46353 10.2002 6.5643 9.99625 6.5643C9.74133 6.5643 9.4335 6.45573 9.07583 6.32958C8.58025 6.15478 7.98901 5.94624 7.31049 5.94624C5.511 5.94624 3.5918 7.42321 3.5918 10.2408C3.5918 13.1044 5.85757 16.6667 7.6532 16.6667C7.93189 16.6667 8.27725 16.5519 8.66025 16.4247C9.137 16.2663 9.67208 16.0884 10.2096 16.0884C10.6912 16.0884 11.109 16.2316 11.5212 16.3728C11.923 16.5104 12.3195 16.6463 12.765 16.6463C14.7296 16.6463 16.1844 12.8901 16.1844 12.8901C16.1844 12.8901 14.104 12.1508 14.104 10.0079C14.104 8.10679 15.7741 7.32315 15.7741 7.32315C15.7741 7.32315 14.9197 5.90639 12.7476 5.90639C11.9802 5.90639 11.3208 6.15011 10.8047 6.34087Z" fill="white"/>
</svg>
