<svg width="20" height="20" viewBox="0 0 20 20" fill="none" xmlns="http://www.w3.org/2000/svg">
<path d="M10.1295 17.9923C7.54447 20.0862 5.82902 18.646 3.65995 16.1505C1.49089 13.6551 -0.310404 11.0495 2.27459 8.95554C4.85957 6.86164 8.7135 7.18713 10.8826 9.68255C13.0516 12.178 12.7144 15.8984 10.1295 17.9923Z" fill="black"/>
<path d="M7.79904 4.32804C7.09603 5.50351 5.73644 6.01628 4.76232 5.47336C3.78819 4.93043 3.56841 3.53741 4.27143 2.36194C4.97444 1.18648 6.33403 0.6737 7.30815 1.21662C8.28228 1.75955 8.50206 3.15258 7.79904 4.32804Z" fill="black"/>
<path d="M13.9884 5.84573C13.0846 6.88549 11.6535 7.16256 10.7918 6.46459C9.93015 5.76663 9.96429 4.35792 10.8681 3.31816C11.7718 2.2784 13.203 2.00132 14.0647 2.69929C14.9263 3.39726 14.8922 4.80597 13.9884 5.84573Z" fill="black"/>
<path d="M17.3745 10.8006C16.1569 11.4793 14.7138 11.2671 14.1514 10.3268C13.589 9.38639 14.1202 8.07391 15.3378 7.39525C16.5555 6.7166 17.9985 6.92876 18.5609 7.86913C19.1233 8.8095 18.5922 10.122 17.3745 10.8006Z" fill="black"/>
<path d="M17.2043 17.2417C15.883 17.7059 14.5001 17.255 14.1154 16.2347C13.7307 15.2143 14.4899 14.0108 15.8111 13.5466C17.1323 13.0824 18.5153 13.5332 18.9 14.5536C19.2847 15.5739 18.5255 16.7774 17.2043 17.2417Z" fill="black"/>
</svg>
