<svg width="40" height="40" viewBox="0 0 40 40" fill="none" xmlns="http://www.w3.org/2000/svg">
<path d="M20 40C31.0457 40 40 31.0457 40 20C40 8.95431 31.0457 0 20 0C8.95431 0 0 8.95431 0 20C0 31.0457 8.95431 40 20 40Z" fill="url(#paint0_linear)"/>
<path fill-rule="evenodd" clip-rule="evenodd" d="M23.5206 12H16.391C13.9698 12 12 13.9699 12 16.3911V23.5207C12 25.9419 13.9698 27.9117 16.391 27.9117H23.5206C25.9419 27.9117 27.9117 25.9418 27.9117 23.5207V16.3911C27.9117 13.9699 25.9419 12 23.5206 12ZM19.9558 15.856C17.695 15.856 15.8557 17.6952 15.8557 19.956C15.8557 22.2167 17.695 24.0559 19.9558 24.0559C22.2166 24.0559 24.0558 22.2167 24.0558 19.956C24.0558 17.6952 22.2166 15.856 19.9558 15.856ZM19.9558 22.644C18.4735 22.644 17.2675 21.4382 17.2675 19.9559C17.2675 18.4736 18.4734 17.2676 19.9558 17.2676C21.4381 17.2676 22.644 18.4736 22.644 19.9559C22.644 21.4382 21.438 22.644 19.9558 22.644ZM23.7936 14.2927C23.9792 14.1064 24.2373 14 24.5 14C24.7636 14 25.0218 14.1064 25.2073 14.2927C25.3936 14.4782 25.5 14.7364 25.5 15C25.5 15.2627 25.3936 15.5209 25.2073 15.7073C25.0209 15.8927 24.7636 16 24.5 16C24.2373 16 23.9791 15.8927 23.7936 15.7073C23.6073 15.5209 23.5 15.2628 23.5 15C23.5 14.7364 23.6072 14.4782 23.7936 14.2927Z" fill="white"/>
<defs>
<linearGradient id="paint0_linear" x1="40" y1="0" x2="0" y2="40" gradientUnits="userSpaceOnUse">
<stop stop-color="#FDD15F"/>
<stop offset="0.4875" stop-color="#F34C89"/>
<stop offset="1" stop-color="#9220DE"/>
</linearGradient>
</defs>
</svg>
