<svg width="124" height="40" viewBox="0 0 124 40" fill="none" xmlns="http://www.w3.org/2000/svg">
<path fill-rule="evenodd" clip-rule="evenodd" d="M90.715 30.2765C90.951 30.0244 91.0698 29.7176 91.0698 29.3575C91.0698 28.9771 90.9526 28.6656 90.715 28.4229C90.4774 28.1802 90.1647 28.0597 89.7739 28.0597C89.3925 28.0597 89.0798 28.1818 88.8328 28.4229C88.5858 28.6656 88.4623 28.9771 88.4623 29.3575C88.4623 29.7176 88.5858 30.0244 88.8328 30.2765C89.0798 30.5285 89.394 30.6553 89.7739 30.6553C90.1647 30.6553 90.4789 30.5285 90.715 30.2765ZM88.5874 39.5178C88.5874 39.704 88.6812 39.7964 88.8656 39.7964H90.6853C90.8604 39.7964 90.9479 39.7025 90.9479 39.5178V32.0283C90.9479 31.853 90.8604 31.7653 90.6853 31.7653H88.8656C88.6796 31.7653 88.5874 31.853 88.5874 32.0283V39.5178ZM78.9343 35.7355C78.9343 37.0943 78.5591 38.1417 77.8087 38.8775C77.0584 39.6133 75.9985 39.9812 74.6322 39.9812C73.2643 39.9812 72.2091 39.6133 71.4634 38.8775C70.7178 38.1417 70.3457 37.0943 70.3457 35.7355V29.0335C70.3457 28.8487 70.4379 28.7548 70.624 28.7548H72.5827C72.7672 28.7548 72.861 28.8472 72.861 29.0335V35.7355C72.861 36.3632 73.0126 36.8376 73.3159 37.1554C73.6192 37.4748 74.0585 37.6344 74.6337 37.6344C75.209 37.6344 75.6546 37.4748 75.9672 37.1554C76.2814 36.836 76.4378 36.3632 76.4378 35.7355V29.0335C76.4378 28.8487 76.5253 28.7548 76.7004 28.7548H78.6748C78.8499 28.7548 78.9374 28.8472 78.9374 29.0335V35.7355H78.9343ZM80.5819 39.8121C80.3974 39.8121 80.3036 39.7197 80.3036 39.5334V32.5074C80.3036 32.3524 80.3708 32.2444 80.5037 32.1833C80.9758 31.9876 81.4964 31.8342 82.0607 31.7199C82.6266 31.6072 83.1863 31.5508 83.7412 31.5508C84.9231 31.5508 85.8313 31.8577 86.4629 32.4698C87.0944 33.0819 87.4118 33.9696 87.4118 35.1327V39.5334C87.4118 39.7182 87.3196 39.8121 87.1335 39.8121H85.3139C85.1294 39.8121 85.0356 39.7197 85.0356 39.5334V35.1327C85.0356 34.566 84.9231 34.1778 84.6964 33.9664C84.4697 33.7551 84.1508 33.6502 83.7397 33.6502C83.524 33.6502 83.3207 33.6627 83.13 33.6893C82.9393 33.7144 82.783 33.7488 82.6595 33.7895V39.5334C82.6595 39.7182 82.5719 39.8121 82.3968 39.8121H80.5819ZM95.2284 31.6291C94.9774 31.6806 94.7543 31.7415 94.5593 31.8133V29.0335C94.5593 28.8472 94.4717 28.7548 94.2967 28.7548H92.477C92.291 28.7548 92.1988 28.8487 92.1988 29.0335V39.1201C92.1988 39.2735 92.2707 39.3831 92.4145 39.4442C92.8866 39.6195 93.4165 39.7557 94.0028 39.8528C94.589 39.9514 95.1439 39.9999 95.6676 39.9999C96.2132 39.9999 96.7088 39.9201 97.1559 39.7604C97.603 39.6007 97.986 39.3722 98.3049 39.0732C98.6222 38.7757 98.8723 38.4094 99.0521 37.9773C99.2319 37.5452 99.3226 37.0505 99.3226 36.4947V34.9652C99.3226 34.4408 99.2428 33.9696 99.0834 33.5531C98.9239 33.1351 98.6988 32.7782 98.4049 32.4792C98.111 32.1802 97.7593 31.9516 97.3482 31.7919C96.937 31.6322 96.4852 31.5524 95.9912 31.5524C95.7349 31.5524 95.4801 31.5774 95.2284 31.6291ZM95.6223 37.8974C96.0444 37.8974 96.368 37.7926 96.5931 37.5812C96.8198 37.3699 96.9323 37.0223 96.9323 36.5386V34.9323C96.9323 34.4799 96.8213 34.1449 96.6009 33.9288C96.3805 33.7128 96.0585 33.6048 95.6379 33.6048C95.4316 33.6048 95.2377 33.6283 95.0517 33.6737C94.8673 33.7206 94.7015 33.7848 94.5577 33.8662V37.7268C94.8673 37.8411 95.2221 37.8974 95.6223 37.8974ZM101.836 31.7966C101.291 31.9625 100.839 32.1629 100.479 32.3993C100.376 32.4713 100.367 32.5856 100.448 32.7375L101.08 33.9413C101.122 34.0243 101.175 34.0713 101.242 34.0807C101.308 34.0901 101.378 34.0744 101.45 34.0337C101.675 33.91 101.969 33.8083 102.329 33.7253C102.688 33.6423 103.038 33.6016 103.378 33.6016C103.881 33.6016 104.223 33.7096 104.403 33.9257C104.583 34.1417 104.673 34.4564 104.673 34.8681V35.0231C104.478 35.0028 104.269 34.9824 104.048 34.9621C103.826 34.9417 103.598 34.9308 103.362 34.9308C102.304 34.9308 101.478 35.1311 100.887 35.5335C100.296 35.9343 100.001 36.537 100.001 37.3401C100.001 38.245 100.326 38.915 100.979 39.3471C101.633 39.7792 102.515 39.9952 103.625 39.9952C104.15 39.9952 104.694 39.9561 105.26 39.8794C105.824 39.8027 106.338 39.6915 106.801 39.5475C106.956 39.4974 107.032 39.3941 107.032 39.2391V35.0075C107.032 33.8239 106.737 32.9519 106.146 32.3899C105.555 31.8295 104.725 31.5492 103.656 31.5492C102.987 31.5492 102.38 31.6322 101.836 31.7966ZM102.73 37.8818C102.504 37.7471 102.391 37.5467 102.391 37.279C102.391 37.0317 102.486 36.8423 102.676 36.7076C102.866 36.5746 103.177 36.5072 103.609 36.5072C103.784 36.5072 103.965 36.5151 104.156 36.5307C104.345 36.5448 104.517 36.5683 104.672 36.5996V37.9585C104.528 37.9882 104.361 38.018 104.172 38.043C103.981 38.0696 103.8 38.0821 103.625 38.0821C103.254 38.0821 102.957 38.0164 102.73 37.8818ZM108.485 39.8121C108.3 39.8121 108.206 39.7197 108.206 39.5334V32.5074C108.206 32.3524 108.274 32.2444 108.407 32.1833C108.879 31.9876 109.399 31.8342 109.964 31.7199C110.529 31.6072 111.089 31.5508 111.644 31.5508C112.826 31.5508 113.734 31.8577 114.366 32.4698C114.997 33.0819 115.315 33.9696 115.315 35.1327V39.5334C115.315 39.7182 115.222 39.8121 115.036 39.8121H113.218C113.034 39.8121 112.94 39.7197 112.94 39.5334V35.1327C112.94 34.566 112.827 34.1778 112.601 33.9664C112.374 33.7551 112.055 33.6502 111.644 33.6502C111.428 33.6502 111.225 33.6627 111.034 33.6893C110.844 33.7144 110.687 33.7488 110.564 33.7895V39.5334C110.564 39.7182 110.476 39.8121 110.301 39.8121H108.485ZM121.094 39.6117C121.146 39.7354 121.253 39.7964 121.418 39.7964H123.594C123.706 39.7964 123.778 39.7651 123.809 39.7041C123.839 39.6414 123.823 39.5647 123.762 39.4724L120.817 35.1484L123.423 32.0909C123.504 31.9986 123.531 31.9203 123.5 31.8592C123.469 31.7982 123.397 31.7669 123.284 31.7669H121.141C120.997 31.7669 120.889 31.8232 120.817 31.9359L118.858 34.4846V29.0335C118.858 28.8472 118.765 28.7548 118.58 28.7548H116.792C116.606 28.7548 116.514 28.8487 116.514 29.0335V39.5178C116.514 39.7041 116.607 39.7964 116.792 39.7964H118.58C118.766 39.7964 118.858 39.7025 118.858 39.5178V37.2947L119.29 36.8313L121.094 39.6117Z" fill="#B3B3B3"/>
<path d="M0 1.8225H3.59762V20.143H13.591V23.5743H0V1.8225Z" fill="black"/>
<path d="M23.005 23.8806C21.8365 23.8806 20.7603 23.6866 19.7763 23.2985C18.7924 22.9105 17.9417 22.3692 17.2242 21.6748C16.5272 20.96 15.9737 20.1124 15.5637 19.132C15.1743 18.1516 14.9795 17.0794 14.9795 15.9152C14.9795 14.7919 15.1743 13.7502 15.5637 12.7903C15.9737 11.8099 16.5272 10.9623 17.2242 10.2475C17.9417 9.53263 18.7924 8.97097 19.7763 8.56248C20.7603 8.154 21.8365 7.94976 23.005 7.94976C24.0094 7.94976 24.9627 8.11315 25.8646 8.43994C26.7666 8.76673 27.5558 9.25691 28.2323 9.91048C28.9088 10.5436 29.4418 11.3402 29.8312 12.3001C30.2207 13.2396 30.4155 14.3221 30.4155 15.5476C30.4155 15.711 30.4155 15.8743 30.4155 16.0377C30.4155 16.2011 30.4052 16.4054 30.3847 16.6505H18.3004C18.3414 17.2836 18.4849 17.8555 18.7309 18.3661C18.9974 18.8767 19.3356 19.3158 19.7456 19.6835C20.1761 20.0511 20.6681 20.337 21.2215 20.5413C21.7955 20.7251 22.4003 20.817 23.0357 20.817C24.1222 20.817 25.0242 20.6025 25.7416 20.1736C26.4591 19.7243 27.0228 19.1626 27.4328 18.4886L30.0157 20.3268C29.3188 21.4297 28.3758 22.2978 27.1868 22.9309C26.0184 23.5641 24.6244 23.8806 23.005 23.8806ZM27.0023 14.1996C26.8178 13.0967 26.3259 12.2593 25.5264 11.6874C24.7474 11.0951 23.866 10.7989 22.882 10.7989C22.39 10.7989 21.898 10.8704 21.406 11.0134C20.9346 11.1564 20.4938 11.3708 20.0838 11.6567C19.6944 11.9427 19.3561 12.3001 19.0691 12.729C18.7821 13.1375 18.5771 13.6277 18.4541 14.1996H27.0023Z" fill="black"/>
<path d="M40.8417 23.8806C39.6938 23.8806 38.6278 23.6764 37.6439 23.2679C36.6804 22.8594 35.8297 22.2978 35.0917 21.5829C34.3742 20.8476 33.8105 20 33.4005 19.0401C32.9905 18.0597 32.7855 17.0181 32.7855 15.9152C32.7855 14.8123 32.9905 13.7809 33.4005 12.8209C33.8105 11.8406 34.3742 10.993 35.0917 10.2781C35.8297 9.54284 36.6804 8.97097 37.6439 8.56248C38.6278 8.154 39.6938 7.94976 40.8417 7.94976C41.9692 7.94976 43.0249 8.154 44.0089 8.56248C44.9929 8.97097 45.8436 9.54284 46.561 10.2781C47.299 10.993 47.873 11.8406 48.283 12.8209C48.693 13.7809 48.898 14.8123 48.898 15.9152C48.898 17.0181 48.693 18.0597 48.283 19.0401C47.873 20 47.299 20.8476 46.561 21.5829C45.8436 22.2978 44.9929 22.8594 44.0089 23.2679C43.0249 23.6764 41.9692 23.8806 40.8417 23.8806ZM40.8417 20.7557C41.5182 20.7557 42.1332 20.6332 42.6867 20.3881C43.2607 20.143 43.7526 19.806 44.1626 19.3771C44.5726 18.9278 44.8904 18.4069 45.1158 17.8146C45.3413 17.2223 45.4541 16.5892 45.4541 15.9152C45.4541 15.2412 45.3413 14.608 45.1158 14.0157C44.8904 13.4234 44.5726 12.9128 44.1626 12.4839C43.7526 12.0346 43.2607 11.6874 42.6867 11.4423C42.1332 11.1972 41.5182 11.0747 40.8417 11.0747C40.1653 11.0747 39.54 11.1972 38.9661 11.4423C38.3921 11.6874 37.9001 12.0346 37.4901 12.4839C37.0801 12.9128 36.7624 13.4234 36.5369 14.0157C36.3114 14.608 36.1987 15.2412 36.1987 15.9152C36.1987 16.5892 36.3114 17.2223 36.5369 17.8146C36.7624 18.4069 37.0801 18.9278 37.4901 19.3771C37.9001 19.806 38.3921 20.143 38.9661 20.3881C39.54 20.6332 40.1653 20.7557 40.8417 20.7557Z" fill="black"/>
<path d="M60.6328 23.8806C59.5258 23.8806 58.5316 23.6457 57.6501 23.176C56.7686 22.6858 56.1127 22.1344 55.6822 21.5216V23.5743H52.2998V0.597046H55.6822V10.3088C56.1127 9.69602 56.7686 9.15478 57.6501 8.68503C58.5316 8.19485 59.5258 7.94976 60.6328 7.94976C61.6782 7.94976 62.6519 8.16421 63.5539 8.59312C64.4764 9.0016 65.2656 9.57348 65.9216 10.3088C66.5775 11.0236 67.09 11.861 67.459 12.8209C67.8485 13.7809 68.0432 14.8123 68.0432 15.9152C68.0432 17.0181 67.8485 18.0495 67.459 19.0095C67.09 19.9694 66.5775 20.817 65.9216 21.5523C65.2656 22.2671 64.4764 22.839 63.5539 23.2679C62.6519 23.6764 61.6782 23.8806 60.6328 23.8806ZM60.0178 20.817C60.6942 20.817 61.3092 20.6945 61.8627 20.4494C62.4367 20.1838 62.9184 19.8366 63.3079 19.4077C63.7179 18.9584 64.0356 18.4376 64.2611 17.8453C64.4866 17.253 64.5994 16.6096 64.5994 15.9152C64.5994 15.2208 64.4866 14.5774 64.2611 13.9851C64.0356 13.3928 63.7179 12.8822 63.3079 12.4533C62.9184 12.004 62.4367 11.6567 61.8627 11.4117C61.3092 11.1461 60.6942 11.0134 60.0178 11.0134C59.3413 11.0134 58.7161 11.1461 58.1421 11.4117C57.5681 11.6567 57.0761 12.004 56.6661 12.4533C56.2767 12.8822 55.9692 13.3928 55.7437 13.9851C55.5182 14.5774 55.4054 15.2208 55.4054 15.9152C55.4054 16.6096 55.5182 17.253 55.7437 17.8453C55.9692 18.4376 56.2767 18.9584 56.6661 19.4077C57.0761 19.8366 57.5681 20.1838 58.1421 20.4494C58.7161 20.6945 59.3413 20.817 60.0178 20.817Z" fill="black"/>
<path d="M77.7914 23.8806C76.7459 23.8806 75.7619 23.6764 74.8395 23.2679C73.9375 22.839 73.1585 22.2671 72.5025 21.5523C71.8466 20.817 71.3238 19.9694 70.9344 19.0095C70.5654 18.0495 70.3809 17.0181 70.3809 15.9152C70.3809 14.8123 70.5654 13.7809 70.9344 12.8209C71.3238 11.861 71.8466 11.0236 72.5025 10.3088C73.1585 9.57348 73.9375 9.0016 74.8395 8.59312C75.7619 8.16421 76.7459 7.94976 77.7914 7.94976C78.8983 7.94976 79.8823 8.19485 80.7433 8.68503C81.6247 9.15478 82.2807 9.69602 82.7112 10.3088V8.25612H86.0936V23.5743H82.7112V21.5216C82.2807 22.1344 81.6247 22.6858 80.7433 23.176C79.8823 23.6457 78.8983 23.8806 77.7914 23.8806ZM78.4063 20.817C79.0828 20.817 79.6978 20.6945 80.2513 20.4494C80.8252 20.1838 81.307 19.8366 81.6965 19.4077C82.1065 18.9584 82.4242 18.4376 82.6497 17.8453C82.8752 17.253 82.9879 16.6096 82.9879 15.9152C82.9879 15.2208 82.8752 14.5774 82.6497 13.9851C82.4242 13.3928 82.1065 12.8822 81.6965 12.4533C81.307 12.004 80.8252 11.6567 80.2513 11.4117C79.6978 11.1461 79.0828 11.0134 78.4063 11.0134C77.7299 11.0134 77.1046 11.1461 76.5307 11.4117C75.9772 11.6567 75.4954 12.004 75.0855 12.4533C74.696 12.8822 74.3885 13.3928 74.163 13.9851C73.9375 14.5774 73.8248 15.2208 73.8248 15.9152C73.8248 16.6096 73.9375 17.253 74.163 17.8453C74.3885 18.4376 74.696 18.9584 75.0855 19.4077C75.4954 19.8366 75.9772 20.1838 76.5307 20.4494C77.1046 20.6945 77.7299 20.817 78.4063 20.817Z" fill="black"/>
<path d="M90.6759 8.25612H94.0582V10.3394C94.5297 9.56327 95.1755 8.97097 95.9954 8.56248C96.8154 8.154 97.7276 7.94976 98.7321 7.94976C99.6135 7.94976 100.413 8.10294 101.13 8.4093C101.868 8.71566 102.494 9.14457 103.006 9.69603C103.519 10.2475 103.908 10.9215 104.175 11.718C104.462 12.4941 104.605 13.3724 104.605 14.3527V23.5743H101.223V14.9042C101.223 13.6787 100.936 12.729 100.362 12.055C99.7878 11.3606 99.0088 11.0134 98.0249 11.0134C96.8974 11.0134 95.9544 11.4423 95.196 12.3001C94.4375 13.1375 94.0582 14.3834 94.0582 16.0377V23.5743H90.6759V8.25612Z" fill="black"/>
<path d="M112.315 16.1909V23.5743H108.933V0.597046H112.315V14.077L118.188 8.25612H122.463L115.606 15.088L124 23.5743H119.664L112.315 16.1909Z" fill="black"/>
</svg>
