<svg width="80" height="80" viewBox="0 0 80 80" fill="none" xmlns="http://www.w3.org/2000/svg">
<path fill-rule="evenodd" clip-rule="evenodd" d="M40 80C62.0914 80 80 62.0914 80 40C80 17.9086 62.0914 0 40 0C17.9086 0 0 17.9086 0 40C0 62.0914 17.9086 80 40 80ZM23 32.5C23 29.4624 25.4624 27 28.5 27H51.5C54.5375 27 57 29.4624 57 32.5V47.5C57 50.5376 54.5375 53 51.5 53H28.5C25.4624 53 23 50.5376 23 47.5V32.5ZM28.5 30C27.1193 30 26 31.1193 26 32.5V42H54V32.5C54 31.1193 52.8807 30 51.5 30H28.5ZM26 47.5V45H54V47.5C54 48.8807 52.8807 50 51.5 50H28.5C27.1193 50 26 48.8807 26 47.5Z" fill="black"/>
</svg>
