<svg width="80" height="80" viewBox="0 0 80 80" fill="none" xmlns="http://www.w3.org/2000/svg">
<path fill-rule="evenodd" clip-rule="evenodd" d="M40 0C17.9086 0 0 17.9086 0 40C0 62.0914 17.9086 80 40 80C62.0914 80 80 62.0914 80 40C80 17.9086 62.0914 0 40 0ZM27 27.5C27 25.0147 29.0147 23 31.5 23H48.5C50.9853 23 53 25.0147 53 27.5V52.5C53 54.9853 50.9853 57 48.5 57H31.5C29.0147 57 27 54.9853 27 52.5V27.5ZM31.5 26C30.6716 26 30 26.6716 30 27.5V52.5C30 53.3284 30.6716 54 31.5 54H48.5C49.3284 54 50 53.3284 50 52.5V27.5C50 26.6716 49.3284 26 48.5 26H31.5ZM42.5 47.5C42.5 48.8807 41.3807 50 40 50C38.6193 50 37.5 48.8807 37.5 47.5C37.5 46.1193 38.6193 45 40 45C41.3807 45 42.5 46.1193 42.5 47.5Z" fill="black"/>
</svg>
