<svg width="80" height="80" viewBox="0 0 80 80" fill="none" xmlns="http://www.w3.org/2000/svg">
<path fill-rule="evenodd" clip-rule="evenodd" d="M40 0C17.9086 0 0 17.9086 0 40C0 62.0914 17.9086 80 40 80C62.0914 80 80 62.0914 80 40C80 17.9086 62.0914 0 40 0ZM26 22H27.5H51.5H53V23.5V55.8545V57.3545H51.5H27.5H26V55.8545V23.5V22ZM29 25V54.3545H50V25H29ZM46 34.3938H32V31.3938H46V34.3938ZM32.333 41.4167H45.6663V38.4167H32.333V41.4167ZM40.6663 48.3745H32.333V45.3745H40.6663V48.3745Z" fill="black"/>
</svg>
